PathFileType	4	(X/Y/Z)	OpenSim_Sub02_CSStiffKnee_Gyro.trc
DataRate	CameraRate	NumFrames	NumMarkers	Units	OrigDataRate	OrigDataStartFrame	OrigNumFrames
100	100	30	8	m	100	3446	6891
Frame#	Time	torso_imu_offset_imu	pelvis_imu_offset_imu	tibia_r_imu_offset_imu	femur_r_imu_offset_imu	tibia_l_imu_offset_imu	femur_l_imu_offset_imu	toes_r_imu_offset_imu	toes_l_imu_offset_imu
				X1	Y1	Z1	X2	Y2	Z2	X3	Y3	Z3	X4	Y4	Z4	X5	Y5	Z5	X6	Y6	Z6	X7	Y7	Z7	X8		Y8	Z8	

3446	34.45000000	0.96169321	-0.23065146	0.25694152	0.74750836	0.21190482	-0.13747681	-0.00223696	0.00580439	-0.71654049	-0.05641035	-0.36186287	-0.72794323	-1.18001760	-1.85425823	-2.54988111	0.08580672	-0.16082902	-0.97256952	-0.09983983	-0.59740146	0.02245331	1.51720301	4.32645902	-1.49135191
3447	34.46000000	0.99151540	-0.23239634	0.25208064	0.73615376	0.16023355	-0.14535439	-0.00984052	0.03609654	-0.73240134	-0.20776073	-0.37270310	-0.68414461	-0.65957349	-1.91792374	-2.77106139	0.12163683	-0.22099265	-0.91529711	-0.01601628	-0.63849854	-0.00176364	1.54979158	4.57640984	-1.52235623
3448	34.47000000	1.00526112	-0.23693681	0.27667263	0.70673505	0.09496584	-0.12840712	0.00708973	0.05605915	-0.80156573	-0.32722897	-0.40227341	-0.59919395	0.19911675	-1.81962119	-2.98068469	0.23392732	-0.25847426	-0.82463629	-0.04450718	-0.70494293	0.00067739	1.43556739	4.83016789	-1.60785771
3449	34.48000000	1.00314179	-0.24402218	0.29966631	0.63360202	0.05118856	-0.10640775	0.05061038	0.07993395	-0.86717247	-0.45032115	-0.39915955	-0.49851937	1.00053704	-1.65067884	-3.17212095	0.45795805	-0.29439380	-0.69900752	-0.04599184	-0.72196934	-0.00497564	1.32519838	4.87262673	-1.69603261
3450	34.49000000	0.98166123	-0.23554383	0.31253594	0.55796397	0.00058763	-0.08729068	-0.00345716	0.06757158	-0.84994686	-0.51570665	-0.29342794	-0.43941251	1.43545840	-1.61371307	-3.33553010	0.59444051	-0.28594617	-0.58847806	-0.01474632	-0.74867465	-0.02342846	1.29478887	4.80157530	-1.74132058
3451	34.50000000	0.95425329	-0.22238354	0.31021951	0.49992403	-0.05887214	-0.06017199	0.06767027	0.07086265	-0.82181326	-0.44842565	-0.19274911	-0.44687332	1.50657990	-1.74373695	-3.50925155	0.43922392	-0.20697578	-0.46714764	0.03115512	-0.78108017	-0.04048877	1.21173769	4.75408182	-1.75246167
3452	34.51000000	0.92946787	-0.21446243	0.30295855	0.47746170	-0.12496790	-0.02360582	0.03777067	0.02823498	-0.81373082	-0.29280193	-0.16448314	-0.49965605	1.20579531	-1.94249632	-3.65255064	0.38021714	-0.21350951	-0.32870648	0.01756079	-0.79053969	-0.04902129	0.96923166	4.73357522	-1.79429745
3453	34.52000000	0.90767666	-0.19226597	0.30029156	0.46555718	-0.16384930	0.01799163	-0.04716476	0.02935926	-0.80342573	-0.07849735	-0.15262105	-0.55192407	0.34013173	-1.98638107	-3.75760336	0.26738095	-0.17495762	-0.23622237	0.01992660	-0.83425971	-0.03789738	0.67176978	4.67947976	-1.94216811
3454	34.53000000	0.85997218	-0.16246457	0.28782189	0.46415555	-0.15836053	0.05714680	-0.09912614	0.03564631	-0.77349887	0.19040945	-0.15327983	-0.60045186	-1.00697900	-1.93852447	-3.81461293	0.15784921	-0.13383518	-0.21705559	0.03350472	-0.86484320	-0.00565202	0.50697982	4.52369188	-2.20309686
3455	34.54000000	0.80127783	-0.13070646	0.27385613	0.46752547	-0.13959255	0.07918975	-0.12658120	0.06871775	-0.74618950	0.45078974	-0.19055667	-0.62766137	-2.37015112	-1.95107716	-3.87122928	0.06600771	-0.09445135	-0.21894601	-0.00038500	-0.89897305	0.03214314	0.46931511	4.20640132	-2.56393630
3456	34.55000000	0.74020034	-0.09043687	0.25593758	0.45953355	-0.13359109	0.09443780	-0.06691643	0.07477977	-0.73927273	0.61852965	-0.25319619	-0.63730566	-3.33485885	-1.98151856	-3.93741937	-0.05171793	-0.07799652	-0.22658993	0.02345916	-0.95560484	0.04329078	0.43420488	3.75025720	-3.03814616
3457	34.56000000	0.68031261	-0.04422847	0.24089613	0.44600168	-0.15175148	0.11135035	0.04012120	0.07081011	-0.73949559	0.69144378	-0.31659572	-0.65037970	-3.67880281	-1.78818128	-3.96553879	-0.11451660	-0.09077340	-0.20822583	-0.02164834	-1.01742867	0.05609132	0.43457241	3.17204560	-3.49910824
3458	34.57000000	0.63156174	-0.00896923	0.21452612	0.40979263	-0.18964678	0.12495571	0.12932393	0.08620790	-0.75602874	0.71636850	-0.33118364	-0.66551044	-3.33660649	-1.47487831	-3.79124345	-0.06581129	-0.09921735	-0.18327169	-0.01146309	-1.05553686	0.04761430	0.55222188	2.54015248	-3.69362357
3459	34.58000000	0.59003747	0.01504621	0.18656551	0.33503208	-0.22958038	0.13670381	0.09448089	0.08802788	-0.77915496	0.69620789	-0.31010696	-0.66633777	-2.37929011	-1.25607812	-3.49106827	0.06746637	-0.07513055	-0.16606101	0.01972179	-1.10320158	0.02174995	0.42211850	2.06174569	-3.57980376
3460	34.59000000	0.55465875	0.05972890	0.13858721	0.24633997	-0.27915206	0.14551585	0.00008201	0.08636183	-0.84737379	0.64465724	-0.27887745	-0.64291186	-1.34211150	-1.05004515	-3.30859356	0.22955949	-0.08861082	-0.14301194	0.03424595	-1.14526029	-0.00033985	-0.00115439	1.83683943	-3.13331871
3461	34.60000000	0.51999837	0.11155253	0.08655164	0.15516456	-0.35772848	0.16191533	-0.13600601	0.09553312	-0.93684040	0.57880155	-0.24304413	-0.60022466	-0.72139182	-0.96817474	-3.07234773	0.36818676	-0.17255238	-0.15112812	0.03660843	-1.18023049	0.00704132	-0.72985460	1.56125166	-2.27269872
3462	34.61000000	0.45737953	0.10228924	0.04457055	0.07046261	-0.42294711	0.16771777	-0.22084586	0.09683583	-1.04635973	0.51275986	-0.19465264	-0.53488840	-0.65973997	-1.08633234	-2.61854607	0.39314574	-0.24609724	-0.18963961	0.02258878	-1.25358559	-0.00121618	-1.15003051	1.10938514	-1.37096050
3463	34.62000000	0.43100530	0.12800638	0.00815012	0.01110477	-0.49735965	0.18183832	-0.18900844	0.10835184	-1.15896121	0.46043322	-0.12970154	-0.44870144	-0.82923011	-1.08485269	-2.05102939	0.27142036	-0.28226301	-0.25080077	0.05128981	-1.29058445	-0.03264442	-0.22973793	0.52961341	-0.46961548
3464	34.63000000	0.39870513	0.16066988	-0.00571134	-0.03610641	-0.55723034	0.19656537	-0.16565107	0.13636895	-1.26289088	0.37378996	-0.06392092	-0.34742556	-0.43626543	-0.91053004	-1.49403149	0.06725115	-0.33479894	-0.28663259	0.09824518	-1.35495163	-0.09090076	0.13972734	-0.01439906	0.17223389
3465	34.64000000	0.35241401	0.16606010	-0.02280178	-0.08740040	-0.60708922	0.20700310	-0.19151650	0.13224144	-1.34146681	0.23567117	-0.00373188	-0.24332193	0.09700180	-0.69348059	-0.98704589	-0.10560302	-0.36317057	-0.35586318	0.19846234	-1.43974200	-0.15828895	0.27014036	-0.51712597	0.45629972
3466	34.65000000	0.32355428	0.16659208	-0.06087492	-0.14205936	-0.64466413	0.21297749	-0.11732933	0.12315146	-1.46380406	0.06029563	0.06160517	-0.13721463	0.55357642	-0.45086457	-0.56651334	-0.25630638	-0.33897030	-0.40910770	0.18679377	-1.51257417	-0.20318283	0.26122503	-1.04511265	0.46095963
3467	34.66000000	0.26317829	0.15550812	-0.10656953	-0.20292374	-0.67174203	0.20822308	0.00961521	0.10007420	-1.64993535	-0.10948115	0.16680570	-0.02686909	0.91976365	-0.26209293	-0.17757814	-0.39112656	-0.30121736	-0.39679912	0.19038402	-1.62226233	-0.23459318	-0.12782785	-1.57054524	0.45476563
3468	34.67000000	0.18293854	0.14581093	-0.17068935	-0.26445192	-0.68013928	0.20327212	0.00303797	0.08097852	-1.79844310	-0.24664533	0.30137976	0.08989422	1.08035873	-0.11667693	0.23281452	-0.41939287	-0.23402118	-0.33883899	0.19017033	-1.74946402	-0.26866687	-0.91549012	-2.05183688	0.61732779
3469	34.68000000	0.09604699	0.14723563	-0.22897930	-0.35227797	-0.65412351	0.20121865	-0.01370396	0.08030956	-1.90408650	-0.29728564	0.40402734	0.19789157	0.78353330	0.03838696	0.62074969	-0.33137780	-0.13621344	-0.27495945	0.19060794	-1.90731806	-0.29324516	-1.35110012	-2.49058003	1.28923098
3470	34.69000000	0.00535413	0.14716672	-0.27290674	-0.47347489	-0.57444912	0.18086036	-0.01136368	0.03779464	-1.99952292	-0.17178364	0.45720724	0.30784835	-0.06352468	0.35518770	1.07207476	-0.28769935	-0.14334995	-0.18941364	0.21515179	-2.13699369	-0.31528742	-0.69891517	-1.50324669	1.62013723
3471	34.70000000	-0.08875947	0.16740200	-0.30716652	-0.60196207	-0.46088872	0.15242345	-0.05402689	-0.01040747	-2.13317531	0.09905519	0.50200834	0.44128129	-1.10525570	0.76557284	1.82537380	-0.41211877	-0.29431245	-0.11109735	0.15887130	-2.50865432	-0.32641475	-1.76682189	1.53612327	-0.07215269
3472	34.71000000	-0.17613517	0.20372881	-0.34727634	-0.69616195	-0.35649727	0.11543850	-0.15578371	-0.10129009	-2.28684162	0.40806650	0.58435405	0.60275277	-2.13269599	0.50288290	2.70758618	-0.65530287	-0.47832099	-0.06573507	0.14538058	-2.98502939	-0.36380886	-1.15204492	0.92804298	0.06874937
3473	34.72000000	-0.26391401	0.24537897	-0.37423409	-0.78562153	-0.25931585	0.07358160	-0.33293119	-0.23249089	-2.41639002	0.60218422	0.75105896	0.80311560	-2.25193186	-0.11921979	2.47701509	-0.78565437	-0.48976716	0.01973171	0.17516882	-3.57016201	-0.43193407	-0.07489449	0.17830526	0.53099520
3474	34.73000000	-0.33256765	0.28292249	-0.38009204	-0.84631307	-0.20157977	0.00137651	-0.46955123	-0.26032309	-2.56229887	0.60660771	1.00635002	1.04648976	-0.28264156	0.27317033	0.71957605	-0.69290814	-0.33579779	0.22519841	0.23908931	-4.19150213	-0.48273158	-0.43263555	0.51706769	0.24155100
3475	34.74000000	-0.36916147	0.28541194	-0.39619093	-0.79092397	-0.23502090	-0.11344378	-0.46513444	-0.06391509	-2.80464281	0.35844704	1.22294991	1.35973916	1.08190421	0.29104272	-0.14132295	-0.53830793	-0.21516081	0.60252512	0.07533589	-4.80925472	-0.54741273	-0.67985809	0.47270158	0.22032680
